<svg height="448pt" viewBox="0 -1 448 447" width="448pt" xmlns="http://www.w3.org/2000/svg"><path d="m216 164.738281v56h16v-56c0-4.417969 3.582031-8 8-8h56v-16h-56c-4.417969 0-8-3.582031-8-8v-56h-16v56c0 4.417969-3.582031 8-8 8h-56v16h56c4.417969 0 8 3.582031 8 8zm0 0"/><path d="m194.585938 292.738281h58.828124l188.921876-136-213.648438-154.722656c-2.796875-2.01953125-6.578125-2.01953125-9.375 0l-213.648438 154.722656zm-50.585938-168h56v-56c0-4.417969 3.582031-8 8-8h32c4.417969 0 8 3.582031 8 8v56h56c4.417969 0 8 3.582031 8 8v32c0 4.417969-3.582031 8-8 8h-56v56c0 4.417969-3.582031 8-8 8h-32c-4.417969 0-8-3.582031-8-8v-56h-56c-4.417969 0-8-3.582031-8-8v-32c0-4.417969 3.582031-8 8-8zm0 0"/><path d="m0 444.738281h448v-272.386719l-187.328125 134.882813c-1.359375.976563-2.996094 1.503906-4.671875 1.503906h-64c-1.675781 0-3.3125-.527343-4.671875-1.503906l-187.328125-134.882813zm0 0"/></svg>