<svg height="456pt" viewBox="-4 0 456 456" width="456pt" xmlns="http://www.w3.org/2000/svg"><path d="m360 440h48v16h-48zm0 0"/><path d="m40 440h48v16h-48zm0 0"/><path d="m448 416v-304c0-4.417969-3.582031-8-8-8h-432c-4.417969 0-8 3.582031-8 8v304c0 4.417969 3.582031 8 8 8h432c4.417969 0 8-3.582031 8-8zm-376-32c0 4.417969-3.582031 8-8 8s-8-3.582031-8-8v-240c0-4.417969 3.582031-8 8-8s8 3.582031 8 8zm80 0c0 4.417969-3.582031 8-8 8s-8-3.582031-8-8v-240c0-4.417969 3.582031-8 8-8s8 3.582031 8 8zm80 0c0 4.417969-3.582031 8-8 8s-8-3.582031-8-8v-240c0-4.417969 3.582031-8 8-8s8 3.582031 8 8zm80 0c0 4.417969-3.582031 8-8 8s-8-3.582031-8-8v-240c0-4.417969 3.582031-8 8-8s8 3.582031 8 8zm80 0c0 4.417969-3.582031 8-8 8s-8-3.582031-8-8v-240c0-4.417969 3.582031-8 8-8s8 3.582031 8 8zm0 0"/><path d="m80 80h64v8h-64zm0 0"/><path d="m104 64h16v-24c0-13.253906 10.746094-24 24-24h160c13.253906 0 24 10.746094 24 24v24h16v-40c0-13.253906-10.746094-24-24-24h-192c-13.253906 0-24 10.746094-24 24zm0 0"/><path d="m304 80h64v8h-64zm0 0"/></svg>