<svg height="448pt" viewBox="-80 0 448 448.01297" width="448pt" xmlns="http://www.w3.org/2000/svg"><path d="m96.007812 360h96v8h-96zm0 0"/><path d="m96.007812 384h96v8h-96zm0 0"/><path d="m48.007812 176h16v32h-16zm0 0"/><path d="m192.007812 408h-96c0 4.417969 3.582032 8 8 8h80c4.417969 0 8-3.582031 8-8zm0 0"/><path d="m121.375 432c3.386719 9.597656 12.457031 16.011719 22.632812 16.011719 10.175782 0 19.246094-6.414063 22.628907-16.011719zm0 0"/><path d="m104.007812 144h16v64h-16zm0 0"/><path d="m288.007812 152c0-86.65625-61.90625-152-144-152-82.097656 0-143.9999995 65.34375-143.9999995 152 0 38.527344 32.4140625 87.320312 64.5351565 118.566406 19.785156 19.351563 31.082031 45.761719 31.40625 73.433594h96.113281c.328125-27.671875 11.625-54.082031 31.40625-73.433594 32.121094-31.246094 64.539062-80.039062 64.539062-118.566406zm-208 72h-48v-64h48zm56 0h-48v-96h48zm56 0h-48v-128h48zm8-160h48v160h-48zm0 0"/><path d="m160.007812 112h16v96h-16zm0 0"/><path d="m216.007812 80h16v128h-16zm0 0"/></svg>