<svg height="471pt" viewBox="0 -7 471.90169 471" width="471pt" xmlns="http://www.w3.org/2000/svg"><path d="m42.246094 350.105469-26.34375-26.34375v132.6875h64v-132.6875l-26.34375 26.34375c-3.125 3.125-8.1875 3.125-11.3125 0zm0 0"/><path d="m143.902344 456.449219h64v-204.160157l-31.410156-25.117187-32.589844 32.589844zm0 0"/><path d="m271.902344 456.449219h64v-268.160157l-31.410156-25.117187-32.589844 32.589844zm0 0"/><path d="m399.902344 456.449219h64v-332.160157l-31.410156-25.117187-32.589844 32.589844zm0 0"/><path d="m407.902344.449219 26.34375 26.34375-98.34375 98.347656-26.34375-26.347656c-3.125-3.121094-8.1875-3.121094-11.3125 0l-82.34375 82.347656-26.34375-26.347656c-3.125-3.121094-8.1875-3.121094-11.3125 0l-130.34375 130.347656-34.34375-34.347656c-3.140625-3.03125-8.128906-2.988281-11.214844.097656s-3.128906 8.078125-.097656 11.214844l40 40c3.125 3.125 8.1875 3.125 11.3125 0l130.34375-130.34375 26.34375 26.34375c3.125 3.125 8.1875 3.125 11.3125 0l82.34375-82.34375 26.34375 26.34375c3.125 3.125 8.1875 3.125 11.3125 0l104-104 26.34375 26.34375v-64zm0 0"/></svg>