<svg height="448pt" viewBox="0 -3 448.33681 448" width="448pt" xmlns="http://www.w3.org/2000/svg"><path d="m175.664062 327.273438-39.59375-39.59375-79.199218 79.199218 34.914062 34.914063c53.144532 53.027343 139.1875 53.027343 192.335938 0l124.445312-124.457031c53.027344-53.148438 53.027344-139.1875 0-192.335938l-34.910156-34.910156-79.199219 79.199218 39.589844 39.589844c15.621094 15.621094 15.621094 40.949219 0 56.570313l-101.816406 101.824219c-15.628907 15.59375-40.933594 15.59375-56.566407 0zm0 0"/><path d="m233.601562 49.214844-73.601562-49.046875v25.046875c0 4.417968-3.582031 8-8 8h-64c-48.578125.058594-87.9414062 39.425781-88 88v72h32v-72c.035156-30.910156 25.085938-55.964844 56-56h64c4.417969 0 8 3.582031 8 8v25.050781zm0 0"/></svg>