<svg height="448pt" viewBox="0 0 448 448" width="448pt" xmlns="http://www.w3.org/2000/svg"><path d="m224 168c-57.410156.066406-103.933594 46.589844-104 104v40h208v-40c-.066406-57.410156-46.589844-103.933594-104-104zm0 0"/><path d="m264 88c0 22.089844-17.910156 40-40 40s-40-17.910156-40-40 17.910156-40 40-40 40 17.910156 40 40zm0 0"/><path d="m448 448v-448h-448v448h64.800781c-.539062-2.632812-.808593-5.3125-.800781-8 0-22.089844 17.910156-40 40-40s40 17.910156 40 40c.007812 2.6875-.261719 5.367188-.800781 8h161.601562c-.539062-2.632812-.808593-5.3125-.800781-8 0-22.089844 17.910156-40 40-40s40 17.910156 40 40c.007812 2.6875-.261719 5.367188-.800781 8zm-224-416c30.929688 0 56 25.070312 56 56s-25.070312 56-56 56-56-25.070312-56-56c.035156-30.914062 25.085938-55.964844 56-56zm120 288c0 4.417969-3.582031 8-8 8h-224c-4.417969 0-8-3.582031-8-8v-48c0-66.273438 53.726562-120 120-120s120 53.726562 120 120zm0 0"/></svg>