<svg height="464pt" viewBox="-8 0 464 464" width="464pt" xmlns="http://www.w3.org/2000/svg"><path d="m224 32c4.417969 0 8-3.582031 8-8v-16c0-4.417969-3.582031-8-8-8s-8 3.582031-8 8v16c0 4.417969 3.582031 8 8 8zm0 0"/><path d="m177.070312 38.71875c2.226563 3.796875 7.09375 5.082031 10.902344 2.882812 3.808594-2.199218 5.128906-7.058593 2.957032-10.882812l-8-13.863281c-2.226563-3.792969-7.09375-5.082031-10.902344-2.882813-3.808594 2.199219-5.128906 7.058594-2.957032 10.882813zm0 0"/><path d="m136.855469 62.929688 13.863281 8c2.476562 1.449218 5.542969 1.464843 8.03125.035156 2.488281-1.429688 4.023438-4.085938 4.015625-6.957032-.007813-2.871093-1.550781-5.515624-4.046875-6.9375l-13.863281-8c-3.824219-2.171874-8.683594-.851562-10.882813 2.957032-2.199218 3.808594-.910156 8.675781 2.882813 10.902344zm0 0"/><path d="m150.71875 137.070312-13.863281 8c-2.496094 1.421876-4.039063 4.066407-4.046875 6.9375-.003906 2.871094 1.527344 5.527344 4.015625 6.957032 2.492187 1.429687 5.554687 1.414062 8.03125-.035156l13.863281-8c2.496094-1.421876 4.039062-4.066407 4.046875-6.9375.007813-2.871094-1.527344-5.527344-4.015625-6.957032-2.488281-1.429687-5.554688-1.414062-8.03125.035156zm0 0"/><path d="m289.28125 150.929688 13.863281 8c1.214844.703124 2.59375 1.074218 4 1.070312 3.621094 0 6.789063-2.433594 7.726563-5.929688.9375-3.496093-.589844-7.1875-3.726563-9l-13.863281-8c-2.476562-1.449218-5.542969-1.464843-8.03125-.035156-2.488281 1.429688-4.023438 4.085938-4.015625 6.957032.007813 2.871093 1.550781 5.515624 4.046875 6.9375zm0 0"/><path d="m293.289062 72c1.402344.003906 2.785157-.367188 4-1.070312l13.863282-8c3.792968-2.226563 5.082031-7.09375 2.882812-10.902344-2.199218-3.808594-7.058594-5.128906-10.882812-2.957032l-13.863282 8c-3.136718 1.8125-4.664062 5.503907-3.726562 9 .9375 3.496094 4.105469 5.929688 7.726562 5.929688zm0 0"/><path d="m260 41.648438c3.828125 2.207031 8.71875.898437 10.929688-2.929688l8-13.863281c2.171874-3.824219.851562-8.683594-2.957032-10.882813-3.808594-2.199218-8.675781-.910156-10.902344 2.882813l-8 13.863281c-2.207031 3.828125-.894531 8.71875 2.929688 10.929688zm0 0"/><path d="m208 192h32v8h-32zm0 0"/><path d="m203.425781 147.328125c3.207031 1.542969 6.578125 2.71875 10.054688 3.496094.800781.183593 1.679687.273437 2.519531.414062v-39.238281c0-4.417969 3.582031-8 8-8s8 3.582031 8 8v39.238281c4.335938-.691406 8.550781-2 12.519531-3.878906 16.847657-7.835937 27.585938-24.777344 27.480469-43.359375 0-26.507812-21.492188-48-48-48s-48 21.492188-48 48c-.113281 18.5625 10.601562 35.484375 27.425781 43.328125zm12.574219-67.328125c0-4.417969 3.582031-8 8-8s8 3.582031 8 8v8c0 4.417969-3.582031 8-8 8s-8-3.582031-8-8zm0 0"/><path d="m293.335938 416c-1.730469.003906-3.414063.566406-4.800782 1.601562l-23.472656 17.597657c-4.15625 3.109375-9.207031 4.792969-14.398438 4.800781h-53.328124c-5.191407-.011719-10.242188-1.695312-14.398438-4.800781l-23.457031-17.597657c-1.386719-1.035156-3.070313-1.59375-4.800781-1.601562h-154.679688v24c0 13.253906 10.746094 24 24 24h400c13.253906 0 24-10.746094 24-24v-24zm0 0"/><path d="m40 368h368v-232h-128c-.167969-.027344-.332031-.0625-.496094-.105469-5.644531 9.703125-13.753906 17.742188-23.503906 23.304688v56.800781c0 13.253906-10.746094 24-24 24h-16c-13.253906 0-24-10.746094-24-24v-56.800781c-9.757812-5.5625-17.867188-13.609375-23.503906-23.328125-.175782 0-.320313.105468-.496094.105468h-128zm34.34375-29.65625 48-48c3.125-3.121094 8.1875-3.121094 11.3125 0l30.34375 30.34375 54.34375-54.34375c3.125-3.121094 8.1875-3.121094 11.3125 0l26.34375 26.34375 92.6875-92.6875h-28.6875c-4.417969 0-8-3.582031-8-8s3.582031-8 8-8h48c4.417969 0 8 3.582031 8 8v48c0 4.417969-3.582031 8-8 8s-8-3.582031-8-8v-28.6875l-98.34375 98.34375c-3.125 3.121094-8.1875 3.121094-11.3125 0l-26.34375-26.34375-54.34375 54.34375c-3.125 3.121094-8.1875 3.121094-11.3125 0l-30.34375-30.34375-42.34375 42.34375c-3.140625 3.03125-8.128906 2.988281-11.214844-.097656-3.085937-3.085938-3.128906-8.074219-.097656-11.214844zm0 0"/><path d="m169.070312 404.800781 23.457032 17.597657c1.386718 1.035156 3.070312 1.59375 4.800781 1.601562h53.328125c1.730469-.003906 3.414062-.566406 4.800781-1.601562l23.472657-17.597657c4.15625-3.109375 9.207031-4.792969 14.398437-4.800781h138.671875v-280c0-4.417969-3.582031-8-8-8h-136.527344c-.339844 2.695312-.847656 5.367188-1.519531 8h130.046875c4.417969 0 8 3.582031 8 8v248c0 4.417969-3.582031 8-8 8h-384c-4.417969 0-8-3.582031-8-8v-248c0-4.417969 3.582031-8 8-8h130.046875c-.671875-2.632812-1.179687-5.304688-1.519531-8h-136.527344c-4.417969 0-8 3.582031-8 8v280h138.664062c5.195313.007812 10.246094 1.691406 14.40625 4.800781zm0 0"/><path d="m216 224h16c4.417969 0 8-3.582031 8-8h-32c0 4.417969 3.582031 8 8 8zm0 0"/><path d="m240 165.984375c-.265625.070313-.542969.085937-.800781.152344-1.734375.421875-3.496094.734375-5.269531 1.007812-.746094.121094-1.480469.289063-2.242188.375-5.097656.640625-10.257812.640625-15.359375 0-.800781-.085937-1.527344-.261719-2.304687-.382812-1.734376-.273438-3.472657-.578125-5.183594-.992188-.273438-.066406-.558594-.089843-.800782-.160156v10.015625h32zm0 0"/></svg>