<svg height="448pt" viewBox="0 0 448.00041 448" width="448pt" xmlns="http://www.w3.org/2000/svg"><path d="m304 287.902344h16v16h-16zm0 0"/><path d="m240 287.902344h16v16h-16zm0 0"/><path d="m240 223.902344h16v16h-16zm0 0"/><path d="m112 351.902344h16v16h-16zm0 0"/><path d="m112 287.902344h16v16h-16zm0 0"/><path d="m176 351.902344h16v16h-16zm0 0"/><path d="m240 351.902344h16v16h-16zm0 0"/><path d="m176 287.902344h16v16h-16zm0 0"/><path d="m176 223.902344h16v16h-16zm0 0"/><path d="m368 223.902344h16v16h-16zm0 0"/><path d="m448 119.902344h-261.105469c-13.832031 42.929687-53.792969 72.023437-98.894531 72-3.742188-.023438-7.480469-.242188-11.199219-.664063-.871093-.09375-1.746093-.191406-2.617187-.300781-3.621094-.464844-7.21875-1.113281-10.773438-1.945312-.371094-.097657-.730468-.214844-1.097656-.3125-3.25-.800782-6.398438-1.824219-9.601562-2.960938-.796876-.285156-1.597657-.558594-2.398438-.871094-3.371094-1.296875-6.671875-2.769531-9.886719-4.414062-.152343-.082032-.3125-.136719-.464843-.210938v267.679688h408.039062zm-304 256c0 4.421875-3.582031 8-8 8h-32c-4.417969 0-8-3.578125-8-8v-32c0-4.417969 3.582031-8 8-8h32c4.417969 0 8 3.582031 8 8zm0-64c0 4.421875-3.582031 8-8 8h-32c-4.417969 0-8-3.578125-8-8v-32c0-4.417969 3.582031-8 8-8h32c4.417969 0 8 3.582031 8 8zm64 64c0 4.421875-3.582031 8-8 8h-32c-4.417969 0-8-3.578125-8-8v-32c0-4.417969 3.582031-8 8-8h32c4.417969 0 8 3.582031 8 8zm0-64c0 4.421875-3.582031 8-8 8h-32c-4.417969 0-8-3.578125-8-8v-32c0-4.417969 3.582031-8 8-8h32c4.417969 0 8 3.582031 8 8zm0-64c0 4.421875-3.582031 8-8 8h-32c-4.417969 0-8-3.578125-8-8v-32c0-4.417969 3.582031-8 8-8h32c4.417969 0 8 3.582031 8 8zm64 128c0 4.421875-3.582031 8-8 8h-32c-4.417969 0-8-3.578125-8-8v-32c0-4.417969 3.582031-8 8-8h32c4.417969 0 8 3.582031 8 8zm0-64c0 4.421875-3.582031 8-8 8h-32c-4.417969 0-8-3.578125-8-8v-32c0-4.417969 3.582031-8 8-8h32c4.417969 0 8 3.582031 8 8zm0-64c0 4.421875-3.582031 8-8 8h-32c-4.417969 0-8-3.578125-8-8v-32c0-4.417969 3.582031-8 8-8h32c4.417969 0 8 3.582031 8 8zm64 64c0 4.421875-3.582031 8-8 8h-32c-4.417969 0-8-3.578125-8-8v-32c0-4.417969 3.582031-8 8-8h32c4.417969 0 8 3.582031 8 8zm0-64c0 4.421875-3.582031 8-8 8h-32c-4.417969 0-8-3.578125-8-8v-32c0-4.417969 3.582031-8 8-8h32c4.417969 0 8 3.582031 8 8zm64 64c0 4.421875-3.582031 8-8 8h-32c-4.417969 0-8-3.578125-8-8v-32c0-4.417969 3.582031-8 8-8h32c4.417969 0 8 3.582031 8 8zm0-64c0 4.421875-3.582031 8-8 8h-32c-4.417969 0-8-3.578125-8-8v-32c0-4.417969 3.582031-8 8-8h32c4.417969 0 8 3.582031 8 8zm0 0"/><path d="m368 287.902344h16v16h-16zm0 0"/><path d="m448 39.902344h-267.679688c.089844.167968.144532.347656.222657.515625 1.636719 3.191406 3.105469 6.46875 4.394531 9.8125.3125.800781.589844 1.601562.886719 2.402343 1.128906 3.136719 2.128906 6.320313 2.953125 9.597657.09375.371093.214844.738281.3125 1.113281.832031 3.554688 1.480468 7.152344 1.941406 10.777344.113281.863281.210938 1.734375.304688 2.605468.417968 3.710938.640624 7.441407.664062 11.175782-.023438 3.945312-.269531 7.878906-.742188 11.792968-.089843.800782-.160156 1.601563-.265624 2.335938-.085938.625-.121094 1.257812-.214844 1.871094h257.222656zm0 0"/><path d="m36.671875 159.40625c2.144531 1.546875 4.351563 2.953125 6.601563 4.289062 9.511718 5.652344 20.019531 9.433594 30.949218 11.144532 4.558594.707031 9.164063 1.0625 13.777344 1.0625 43.308594-.023438 80.152344-31.566406 86.847656-74.355469 6.695313-42.785156-18.753906-84.078125-59.984375-97.328125s-85.972656 5.484375-105.457031 44.160156c-19.484375 38.675782-7.917969 85.78125 27.265625 111.027344zm43.328125-127.503906c0-4.417969 3.582031-8 8-8s8 3.582031 8 8v52.691406l29.65625 29.65625c2.078125 2.007812 2.914062 4.980469 2.183594 7.777344-.734375 2.796875-2.917969 4.980468-5.714844 5.714844-2.796875.730468-5.773438-.101563-7.78125-2.183594l-32-32c-1.5-1.5-2.34375-3.53125-2.34375-5.65625zm0 0"/><path d="m304 223.902344h16v16h-16zm0 0"/></svg>