<svg height="448pt" viewBox="-16 0 448 448" width="448pt" xmlns="http://www.w3.org/2000/svg"><path d="m232 144h-48c-45.480469.054688-83.449219 34.710938-87.640625 80h223.28125c-4.191406-45.289062-42.160156-79.945312-87.640625-80zm0 0"/><path d="m0 240h416v32h-416zm0 0"/><path d="m70.679688 448h274.640624l29.09375-160h-332.828124zm0 0"/><path d="m256 48c0 26.507812-21.492188 48-48 48s-48-21.492188-48-48 21.492188-48 48-48 48 21.492188 48 48zm0 0"/><path d="m208 0c26.507812 0 48 21.492188 48 48s-21.492188 48-48 48-48-21.492188-48-48c.027344-26.5 21.5-47.9726562 48-48zm0 0"/><path d="m48 176.9375c.046875-18.1875 8.875-35.234375 23.703125-45.761719l26.273437-20.375c6.519532 2.648438 14.007813.726563 18.445313-4.738281 4.4375-5.46875 4.78125-13.191406.84375-19.027344-3.933594-5.839844-11.222656-8.417968-17.953125-6.355468s-11.324219 8.28125-11.3125 15.320312c.023438.710938.09375 1.417969.214844 2.121094l-26.0625 20.222656c-18.90625 13.53125-30.132813 35.34375-30.152344 58.59375v47.0625h16zm0 0"/></svg>