<svg height="448pt" viewBox="0 -34 448 448" width="448pt" xmlns="http://www.w3.org/2000/svg"><path d="m448 304v-31.199219c-15.699219 3.234375-27.964844 15.5-31.199219 31.199219zm0 0"/><path d="m224 224c-30.914062.035156-55.964844 25.085938-56 56-.046875 9.828125 2.5625 19.488281 7.542969 27.960938l.449219.800781c.171874.355469.367187.699219.582031 1.03125 7.921875 12.5 20.421875 21.40625 34.824219 24.800781 8.300781 1.84375 16.902343 1.84375 25.203124 0 14.34375-3.371094 26.804688-12.210938 34.71875-24.640625.25-.371094.476563-.753906.679688-1.152344l.449219-.800781c4.992187-8.484375 7.601562-18.15625 7.550781-28-.035156-30.914062-25.085938-55.964844-56-56zm0 0"/><path d="m248 64c0 13.253906-10.746094 24-24 24s-24-10.746094-24-24 10.746094-24 24-24 24 10.746094 24 24zm0 0"/><path d="m448 47.359375c-24.527344-3.566406-43.792969-22.832031-47.359375-47.359375h-353.28125c-3.566406 24.527344-22.832031 43.792969-47.359375 47.359375v209.28125c24.527344 3.566406 43.792969 22.832031 47.359375 47.359375h108.800781c-.574218-1.601562-1.0625-3.273438-1.519531-4.929688-.039063-.148437-.097656-.300781-.136719-.453124-.726562-2.730469-1.285156-5.5-1.679687-8.296876-.089844-.625-.160157-1.242187-.238281-1.863281-3.410157-26.679687 8.332031-53.035156 30.453124-68.339843 22.117188-15.300782 50.921876-17 74.6875-4.402344 23.761719 12.597656 38.523438 37.390625 38.273438 64.285156-.019531 2.816406-.207031 5.628906-.558594 8.425781-.074218.644531-.152344 1.285157-.25 1.933594-.375 2.742187-.910156 5.457031-1.597656 8.136719-.074219.28125-.179688.542968-.25.800781-.441406 1.597656-.902344 3.144531-1.449219 4.6875h108.800781c3.566407-24.503906 22.804688-43.757813 47.304688-47.34375zm-224-23.359375c22.089844 0 40 17.910156 40 40s-17.910156 40-40 40-40-17.910156-40-40c.027344-22.082031 17.917969-39.972656 40-40zm-120 104h240c4.417969 0 8 3.582031 8 8s-3.582031 8-8 8h-240c-4.417969 0-8-3.582031-8-8s3.582031-8 8-8zm16 128h-64c-4.417969 0-8-3.582031-8-8s3.582031-8 8-8h64c4.417969 0 8 3.582031 8 8s-3.582031 8-8 8zm184-80h-160c-4.417969 0-8-3.582031-8-8s3.582031-8 8-8h160c4.417969 0 8 3.582031 8 8s-3.582031 8-8 8zm88 80h-64c-4.417969 0-8-3.582031-8-8s3.582031-8 8-8h64c4.417969 0 8 3.582031 8 8s-3.582031 8-8 8zm0 0"/><path d="m274.296875 331.398438c-.585937.578124-1.175781 1.144531-1.792969 1.707031-1.320312 1.207031-2.695312 2.34375-4.105468 3.453125-.628907.488281-1.238282 1-1.878907 1.472656-1.597656 1.160156-3.199219 2.234375-4.894531 3.257812-.511719.320313-1 .671876-1.519531.976563-2.214844 1.289063-4.496094 2.464844-6.832031 3.519531l-.113282.054688 33.824219 33.824218 2.6875-13.601562c.628906-3.167969 3.101563-5.648438 6.273437-6.285156l13.664063-2.746094-30.617187-30.550781c-.3125.367187-.679688.6875-1.007813 1.054687-1.171875 1.328125-2.402344 2.617188-3.6875 3.863282zm0 0"/><path d="m448 0h-31.199219c3.234375 15.699219 15.5 27.964844 31.199219 31.199219zm0 0"/><path d="m0 0v31.199219c15.699219-3.234375 27.964844-15.5 31.199219-31.199219zm0 0"/><path d="m0 272.800781v31.199219h31.199219c-3.234375-15.699219-15.5-27.964844-31.199219-31.199219zm0 0"/><path d="m158.328125 366.046875 2.6875 13.601563 33.824219-33.824219-.160156-.082031c-2.285157-1.03125-4.519532-2.183594-6.6875-3.445313-.710938-.417969-1.382813-.898437-2.082032-1.328125-1.453125-.921875-2.902344-1.847656-4.292968-2.863281-.800782-.585938-1.554688-1.21875-2.328126-1.824219-1.234374-.984375-2.402343-1.984375-3.609374-3.042969-.800782-.679687-1.488282-1.390625-2.222657-2.109375-1.109375-1.097656-2.175781-2.230468-3.199219-3.394531-.394531-.445313-.84375-.839844-1.226562-1.285156l-30.632812 30.566406 13.664062 2.746094c3.167969.636719 5.636719 3.117187 6.265625 6.285156zm0 0"/></svg>