<svg height="447pt" viewBox="0 0 447.88631 447" width="447pt" xmlns="http://www.w3.org/2000/svg"><path d="m152.28125 216.242188c3.777344-33.394532 30.128906-59.75 63.527344-63.527344v-152.273438c-117.34375 4.328125-211.472656 98.457032-215.8007815 215.800782zm0 0"/><path d="m231.808594.441406v152.273438c30.4375 3.382812 55.40625 25.648437 62.238281 55.503906 6.828125 29.855469-5.976563 60.765625-31.917969 77.042969-25.945312 16.277343-59.34375 14.363281-83.257812-4.769531l-107.6875 107.695312c72.742187 67.777344 181.457031 79.496094 266.972656 28.777344 85.515625-50.722656 127.363281-151.742188 102.765625-248.078125-24.59375-96.335938-109.75-164.925781-209.113281-168.445313zm0 0"/><path d="m59.863281 376.867188 107.703125-107.695313c-8.496094-10.609375-13.796875-23.417969-15.277344-36.929687h-152.289062c1.753906 53.875 23.03125 105.273437 59.863281 144.625zm0 0"/><path d="m167.808594 224.242188c0 30.929687 25.070312 56 56 56 30.925781 0 56-25.070313 56-56 0-30.925782-25.074219-56-56-56-30.929688 0-56 25.074218-56 56zm0 0"/></svg>