<svg height="448pt" viewBox="0 0 448 448" width="448pt" xmlns="http://www.w3.org/2000/svg"><path d="m416 40h32v80h-32zm0 0"/><path d="m416 136h32v80h-32zm0 0"/><path d="m264 224c0 22.089844-17.910156 40-40 40s-40-17.910156-40-40 17.910156-40 40-40 40 17.910156 40 40zm0 0"/><path d="m416 328h32v80h-32zm0 0"/><path d="m416 232h32v80h-32zm0 0"/><path d="m0 0h32v448h-32zm0 0"/><path d="m400 448v-448h-352v448zm-280-224c.066406-57.410156 46.589844-103.933594 104-104h16c57.410156.066406 103.933594 46.589844 104 104v16c.058594 18.523438-12.648438 34.644531-30.667969 38.921875-18.023437 4.28125-36.617187-4.414063-44.890625-20.984375-14.1875 18.605469-38.449218 26.429688-60.835937 19.617188-22.382813-6.8125-38.171875-26.824219-39.59375-50.179688-1.417969-23.355469 11.832031-45.128906 33.226562-54.601562 21.394531-9.472657 46.425781-4.644532 62.761719 12.105468v-16.878906h16v72c0 13.253906 10.746094 24 24 24s24-10.746094 24-24v-16c-.058594-48.578125-39.421875-87.941406-88-88h-16c-48.578125.058594-87.941406 39.421875-88 88v8c.058594 48.578125 39.421875 87.941406 88 88h16c17.535156.035156 34.675781-5.199219 49.199219-15.023438l8.953125 13.253907c-17.167969 11.613281-37.425782 17.804687-58.152344 17.769531h-16c-57.410156-.066406-103.933594-46.589844-104-104zm0 0"/></svg>