<svg height="448pt" viewBox="0 -1 448 447" width="448pt" xmlns="http://www.w3.org/2000/svg"><path d="m257.871094 196.738281h-17.871094c-4.417969 0-8-3.582031-8-8v-120h-16v120c0 4.417969-3.582031 8-8 8h-17.871094l33.871094 56.445313zm0 0"/><path d="m194.585938 292.738281h58.828124l188.921876-136-213.648438-154.722656c-2.796875-2.01953125-6.578125-2.01953125-9.375 0l-213.648438 154.722656zm-18.585938-112h24v-120c0-4.417969 3.582031-8 8-8h32c4.417969 0 8 3.582031 8 8v120h24c2.882812 0 5.542969 1.550781 6.960938 4.058594 1.421874 2.511719 1.378906 5.589844-.105469 8.0625l-48 80c-1.445313 2.402344-4.046875 3.875-6.855469 3.875s-5.410156-1.472656-6.855469-3.875l-48-80c-1.484375-2.472656-1.527343-5.550781-.105469-8.0625 1.417969-2.507813 4.078126-4.058594 6.960938-4.058594zm0 0"/><path d="m0 444.738281h448v-272.386719l-187.328125 134.882813c-1.359375.976563-2.996094 1.503906-4.671875 1.503906h-64c-1.675781 0-3.3125-.527343-4.671875-1.503906l-187.328125-134.882813zm0 0"/></svg>