<svg height="448pt" viewBox="0 -1 448 447" width="448pt" xmlns="http://www.w3.org/2000/svg"><path d="m216 140.738281v120h16v-120c0-4.417969 3.582031-8 8-8h17.871094l-33.871094-56.449219-33.871094 56.449219h17.871094c4.417969 0 8 3.582031 8 8zm0 0"/><path d="m0 444.738281h448v-272.386719l-187.328125 134.882813c-1.359375.976563-2.996094 1.503906-4.671875 1.503906h-64c-1.675781 0-3.3125-.527343-4.671875-1.503906l-187.328125-134.882813zm0 0"/><path d="m194.585938 292.738281h58.828124l188.921876-136-213.648438-154.722656c-2.796875-2.01953125-6.578125-2.01953125-9.375 0l-213.648438 154.722656zm22.558593-236.121093c1.550781-2.261719 4.113281-3.613282 6.855469-3.613282s5.304688 1.351563 6.855469 3.613282l48 80c1.484375 2.472656 1.527343 5.550781.105469 8.058593-1.417969 2.507813-4.078126 4.0625-6.960938 4.0625h-24v120c0 4.417969-3.582031 8-8 8h-32c-4.417969 0-8-3.582031-8-8v-120h-24c-2.882812 0-5.542969-1.554687-6.960938-4.0625-1.421874-2.507812-1.378906-5.585937.105469-8.058593zm0 0"/></svg>