<svg height="447pt" viewBox="-9 0 447 447.91984" width="447pt" xmlns="http://www.w3.org/2000/svg"><path d="m128.25 410.039062c21.027344 18.171876 46.230469 30.851563 73.355469 36.90625l4.398437.972657 4.433594-.972657c27.09375-6.054687 52.265625-18.71875 73.277344-36.867187 5.90625-5.066406 11.453125-10.535156 16.609375-16.367187 4.808593-5.566407 9.246093-11.445313 13.28125-17.597657h-69.074219c-3.378906 9.554688-12.394531 15.957031-22.527344 16h-32c-13.253906 0-24-10.746093-24-24 0-13.257812 10.746094-24 24-24h32c10.132813.039063 19.148438 6.445313 22.527344 16h78.542969c12.398437-23.847656 18.890625-50.324219 18.929687-77.203125v-61.4375c.007813-6.226562-.585937-12.433594-1.777344-18.542968-5.816406-32.257813-26.503906-59.878907-55.824218-74.53125l-29.277344-14.589844-19.058594 18.589844c-11.519531 11.203124-24.289062 21.035156-38.0625 29.3125-24.546875 14.839843-51.929687 24.378906-80.382812 28l-14.082032 1.855468c-20.375 8.859375-33.546874 28.96875-33.535156 51.183594v40.160156c-.128906 48.859375 21.160156 95.324219 58.246094 127.128906zm141.753906-193.925781c8.835938 0 16 7.160157 16 16 0 8.835938-7.164062 16-16 16-8.835937 0-16-7.164062-16-16 0-8.839843 7.164063-16 16-16zm-128 0c8.835938 0 16 7.160157 16 16 0 8.835938-7.164062 16-16 16-8.835937 0-16-7.164062-16-16 0-8.839843 7.164063-16 16-16zm0 0"/><path d="m190.003906 360.113281c-4.417968 0-8 3.582031-8 8s3.582032 8 8 8h32c4.417969 0 8-3.582031 8-8s-3.582031-8-8-8zm0 0"/><path d="m105.5625 413.710938 2.242188-.800782c-2.8125-2.796875-5.519532-5.675781-8.121094-8.628906-29.457032-33.570312-45.691406-76.710938-45.679688-121.371094v-40.160156c-.046875-29.058594 17.441406-55.277344 44.289063-66.398438.648437-.269531 1.328125-.457031 2.023437-.550781l15.199219-2c26.265625-3.324219 51.546875-12.113281 74.207031-25.800781 12.734375-7.632812 24.542969-16.707031 35.203125-27.039062l23.117188-22.554688c2.4375-2.375 6.113281-2.953125 9.160156-1.429688l34.328125 17.128907c33.816406 16.875 57.699219 48.707031 64.449219 85.894531 1.359375 7.074219 2.039062 14.265625 2.023437 21.472656v61.4375c-.027344 26.667969-5.855468 53.011719-17.078125 77.203125h17.078125c8.085938 0 15.980469-2.464843 22.625-7.074219-4.367187-11.609374-6.613281-23.90625-6.625-36.3125v-188.613281c0-2.472656-.070312-4.875-.289062-7.273437-4.003906-45.519532-42.015625-80.503906-87.710938-80.726563-14.574218-.035156-28.925781 3.574219-41.753906 10.496094-3.574219 1.902344-8.011719.832031-10.324219-2.496094-27.710937-39.664062-77.660156-57.191406-124.074219-43.539062-48.957031 14.050781-81.933593 59.785156-79.800781 110.671875 0 1.386718-.046875 202.335937-.046875 202.335937.011719 13.226563-2.511718 26.332031-7.433594 38.609375l-22.109374 55.320313 1.773437.671875c33.214844 12.539062 69.761719 13.078125 103.328125 1.527344zm0 0"/><path d="m398.003906 320.113281v-16h-8v12.613281c.015625 7.566407 1.015625 15.09375 2.96875 22.402344 3.253906-5.8125 4.984375-12.355468 5.03125-19.015625zm0 0"/><path d="m403.605469 411.472656-17.058594-43.25c-8.625 5.164063-18.488281 7.890625-28.542969 7.890625h-25.398437c-5.851563 10.003907-12.636719 19.433594-20.265625 28.160157-2.679688 3.03125-5.480469 6-8.375 8.871093 32.453125 10.6875 67.5625 10.097657 99.640625-1.671875zm0 0"/><path d="m430.003906 200.113281c0-4.417969-3.582031-8-8-8h-32v96h32c4.417969 0 8-3.582031 8-8zm0 0"/></svg>