<svg height="448pt" viewBox="-32 0 448 448.08014" width="448pt" xmlns="http://www.w3.org/2000/svg"><path d="m241.328125 273.914062c24.351563-19.714843 38.480469-49.382812 38.449219-80.714843v-49.679688c-.25-8.800781-11.074219-23.238281-29.707032-39.296875-7.109374-6.101562-13.839843-11.199218-18.109374-14.238281l-38.792969 29.433594c-20.644531 15.6875-45.808594 24.285156-71.734375 24.503906h-1.816406c-8.742188.027344-15.820313 7.113281-15.839844 15.855469v33.421875c-.039063 31.3125 14.074218 60.964843 38.398437 80.679687 4.289063 3.484375 8.835938 6.636719 13.601563 9.433594 10.8125 6.152344 22.617187 10.367188 34.878906 12.457031l1.054688.167969 1.089843-.175781c12.25-2.089844 24.042969-6.300781 34.847657-12.449219 4.789062-2.78125 9.363281-5.925781 13.679687-9.398438zm0 0"/><path d="m71.777344 190.089844c-.011719 23.667968-6.1875 46.925781-17.921875 67.476562l-10.167969 17.792969c25.316406 6.941406 52 7.191406 77.441406.722656-21.421875-22.273437-33.378906-51.980469-33.351562-82.882812v-33.519531c.03125-17.539063 14.25-31.746094 31.789062-31.757813h1.808594c22.453125-.199219 44.234375-7.648437 62.105469-21.242187l43.496093-33c2.71875-2.058594 6.445313-2.167969 9.28125-.273438 8.414063 5.78125 16.507813 12.011719 24.246094 18.675781 23.023438 19.847657 34.878906 37.078125 35.273438 51.199219v49.917969c.035156 31.046875-12.015625 60.886719-33.601563 83.199219 25.476563 6.324218 52.15625 5.914062 77.425781-1.191407h.140626l-10.039063-17.597656c-11.742187-20.566406-17.921875-43.839844-17.925781-67.519531v-102.007813c-.035156-30.914062-25.089844-55.964843-56-56-6.328125-.019531-12.605469 1.066407-18.5625 3.199219-.09375 0-.191406 0-.277344.046875-.492188.121094-.992188.195313-1.496094.222656-.527344.101563-1.066406.152344-1.601562.144531-.394532-.066406-.78125-.164062-1.160156-.296874-.597657-.105469-1.183594-.285157-1.742188-.527344-.351562-.222656-.6875-.46875-1.007812-.734375-.519532-.339844-.996094-.738281-1.425782-1.183594-.054687-.066406-.144531-.089844-.199218-.160156-23.421876-29.074219-62.636719-40.203125-97.835938-27.769531-35.203125 12.433593-58.726562 45.726562-58.691406 83.058593zm0 0"/><path d="m383.511719 448.082031c-4.289063-62.996093-56.597657-111.925781-119.734375-112h-24c0 26.507813-21.492188 48-48 48-26.511719 0-48-21.492187-48-48h-24c-63.207032-.097656-115.617188 48.925781-119.7382815 112zm0 0"/><path d="m190.464844 311.96875-2.402344-.394531c-9.730469-1.652344-19.230469-4.472657-28.285156-8.398438v32.90625c0 17.671875 14.324218 32 32 32 17.671875 0 32-14.328125 32-32v-32.90625c-9.046875 3.925781-18.535156 6.742188-28.257813 8.390625l-2.398437.402344c-.878906.148438-1.777344.148438-2.65625 0zm0 0"/></svg>