<svg height="448pt" viewBox="-56 0 448 448" width="448pt" xmlns="http://www.w3.org/2000/svg"><path d="m138.902344 51.273438c-1.003906-1.09375-1.949219-2.238282-2.832032-3.433594-.566406-.800782-1.140624-1.480469-1.65625-2.273438-.859374-1.371094-1.632812-2.800781-2.316406-4.269531-.363281-.738281-.800781-1.433594-1.089844-2.191406-.882812-2.15625-1.578124-4.386719-2.070312-6.664063 0-.144531-.097656-.273437-.128906-.417968v-.023438h-48.808594v40c0 4.417969 3.582031 8 8 8h160c4.417969 0 8-3.582031 8-8v-40h-48.800781c0 .144531-.09375.273438-.128907.414062-.492187 2.28125-1.1875 4.507813-2.070312 6.664063-.3125.800781-.726562 1.457031-1.089844 2.195313-.683594 1.46875-1.457031 2.894531-2.316406 4.269531-.515625.800781-1.089844 1.511719-1.65625 2.273437-.882812 1.195313-1.828125 2.339844-2.832031 3.429688-.671875.714844-1.371094 1.378906-2.089844 2.042968-1.070313.988282-2.199219 1.917969-3.375 2.78125-.800781.585938-1.601563 1.144532-2.402344 1.671876-1.273437.789062-2.59375 1.503906-3.949219 2.144531-.847656.417969-1.679687.847656-2.5625 1.203125-1.550781.585937-3.136718 1.082031-4.75 1.476562-.800781.203125-1.550781.480469-2.402343.640625-5.011719 1.023438-10.183594 1.023438-15.199219 0-.800781-.160156-1.597656-.4375-2.398438-.640625-1.613281-.394531-3.199218-.890625-4.753906-1.476562-.878906-.355469-1.710937-.800782-2.558594-1.203125-1.355468-.640625-2.675781-1.355469-3.953124-2.144531-.800782-.527344-1.597657-1.085938-2.398438-1.671876-1.175781-.863281-2.304688-1.792968-3.375-2.78125-.664062-.640624-1.363281-1.289062-2.035156-2.015624zm0 0"/><path d="m0 448h336v-416h-64v16h40c4.417969 0 8 3.582031 8 8v304c0 .175781-.089844.328125-.105469.503906-.039062.699219-.175781 1.394532-.40625 2.054688-.089843.257812-.152343.503906-.265625.753906-.386718.871094-.925781 1.664062-1.597656 2.34375l-64 64c-1.496094 1.488281-3.515625 2.332031-5.625 2.34375h-224c-4.417969 0-8-3.582031-8-8v-368c0-4.417969 3.582031-8 8-8h40v-16h-64zm0 0"/><path d="m259.089844 193.601562-11.328125-11.328124-106.105469 106.101562c-3.125 3.117188-8.179688 3.117188-11.304688 0l-31.640624-31.574219-11.3125 11.261719 48.601562 48.625zm0 0"/><path d="m192 24c0 13.253906-10.746094 24-24 24s-24-10.746094-24-24 10.746094-24 24-24 24 10.746094 24 24zm0 0"/><path d="m292.6875 368h-36.6875v36.6875zm0 0"/><path d="m64 72v-8h-32v352h208v-56c0-4.417969 3.582031-8 8-8h56v-288h-32v8c0 13.253906-10.746094 24-24 24h-160c-13.253906 0-24-10.746094-24-24zm29.070312 167.855469c3.125-3.113281 8.175782-3.113281 11.296876 0l31.632812 31.558593 106.105469-106.109374c3.121093-3.125 8.1875-3.125 11.308593 0l22.640626 22.640624c3.125 3.121094 3.125 8.1875 0 11.3125l-134.398438 134.398438c-3.125 3.121094-8.1875 3.121094-11.3125 0l-59.917969-59.921875c-1.503906-1.5-2.347656-3.535156-2.347656-5.660156 0-2.121094.84375-4.15625 2.347656-5.660157zm0 0"/></svg>