<svg height="448pt" viewBox="-40 0 448 448" width="448pt" xmlns="http://www.w3.org/2000/svg"><path d="m0 48v400h320v-32h-280c-4.417969 0-8-3.582031-8-8v-360zm0 0"/><path d="m216 336c0 8.835938-7.164062 16-16 16s-16-7.164062-16-16 7.164062-16 16-16 16 7.164062 16 16zm0 0"/><path d="m192 128h16v144h-16zm0 0"/><path d="m368 96h-88c-4.417969 0-8-3.582031-8-8v-88h-224v400h320zm-192 16h48v176h-48zm24 256c-17.671875 0-32-14.328125-32-32s14.328125-32 32-32 32 14.328125 32 32-14.328125 32-32 32zm0 0"/><path d="m288 80h68.6875l-68.6875-68.6875zm0 0"/></svg>