<svg height="448pt" viewBox="-56 0 448 448" width="448pt" xmlns="http://www.w3.org/2000/svg"><path d="m200 216c0 17.671875-14.328125 32-32 32s-32-14.328125-32-32 14.328125-32 32-32 32 14.328125 32 32zm0 0"/><path d="m240 360c0-39.765625-32.234375-72-72-72s-72 32.234375-72 72v40h144zm0 0"/><path d="m128 80h80v-72c0-4.417969-3.582031-8-8-8h-64c-4.417969 0-8 3.582031-8 8zm0 0"/><path d="m8 448h320c4.417969 0 8-3.582031 8-8v-392c0-4.417969-3.582031-8-8-8h-104v40h16c4.417969 0 8 3.582031 8 8s-3.582031 8-8 8h-144c-4.417969 0-8-3.582031-8-8s3.582031-8 8-8h16v-40h-104c-4.417969 0-8 3.582031-8 8v392c0 4.417969 3.582031 8 8 8zm160-280c26.507812 0 48 21.492188 48 48s-21.492188 48-48 48-48-21.492188-48-48c.027344-26.5 21.5-47.972656 48-48zm-88 192c0-48.601562 39.398438-88 88-88s88 39.398438 88 88v48c0 4.417969-3.582031 8-8 8h-160c-4.417969 0-8-3.582031-8-8zm0 0"/></svg>