<svg height="447pt" viewBox="-35 0 447 447.94705" width="447pt" xmlns="http://www.w3.org/2000/svg"><path d="m300.410156 345.546875c.738282-1.761719 1.257813-3.199219 1.785156-4.582031.617188-1.601563 1.089844-2.953125 1.601563-4.371094l1.871094-6.03125c.390625-1.246094.671875-2.296875.953125-3.40625 1.246094-4.4375 2.269531-8.933594 3.0625-13.472656.464844-2.097656.8125-4.21875 1.039062-6.351563.304688-1.746093.441406-2.898437.578125-4v-.113281c0-.046875 0-.085938 0-.136719.527344-4.128906.800781-8.167969 1.0625-12.367187l.046875-2.574219c.082032-2 .082032-3.5625.082032-5.203125v-61.4375c.007812-6.226562-.585938-12.433594-1.777344-18.546875-.507813-2.898437-1.175782-5.769531-1.992188-8.597656-7.609375-28.703125-27.226562-52.734375-53.832031-65.929688l-29.277344-14.589843-19.058593 18.589843c-11.519532 11.203125-24.292969 21.035157-38.0625 29.3125-24.546876 14.839844-51.929688 24.378907-80.382813 28l-14.082031 1.855469c-13.671875 6.019531-24.386719 17.230469-29.785156 31.160156-2.484376 6.382813-3.757813 13.175782-3.75 20.023438v40.160156c0 2.570312.070312 5.066406.152343 7.625l.128907 2.320312c.085937 1.335938.167968 2.65625.308593 4 .105469 1.953126.25 3.390626.449219 4.800782.054688.363281.082031.734375.082031 1.101562.246094 1.601563.382813 2.785156.582031 3.875.046876.222656.136719.976563.160157 1.199219.058593.289063.09375.578125.113281.871094 0 .082031.0625.144531.070312.222656.140626 1.453125.382813 2.890625.722657 4.304687.300781 1.746094.589843 3.050782.878906 4.351563.648437 3.304687 1.40625 6.402344 2.222656 9.386719.320313 1.277344.609375 2.253906.960938 3.375.074219.230468.132812.464844.183593.703125l1.71875 5.527343c.472657 1.417969.945313 2.800782 1.488282 4.183594.601562 1.601563 1.121094 3.011719 1.714844 4.410156.160156.46875.351562.929688.574218 1.375 1.007813 2.449219 1.734375 4.28125 2.625 6.113282 1 2.230468 2.039063 4.328125 3.085938 6.34375 1.050781 2.015625 1.875 3.734375 2.824218 5.421875.054688.09375.101563.191406.144532.289062.144531.226563.277344.460938.390625.703125l2.402343 4.050782c.878907 1.511718 1.65625 2.710937 2.398438 3.902343l1.234375 1.945313c1.597656 2.464844 3.320313 4.953125 5.132813 7.359375 1.105468 1.503906 2.25 2.953125 3.402343 4.414062 1.757813 2.21875 3.617188 4.457031 5.542969 6.691407 23.644531 26.71875 55.097656 45.320312 89.90625 53.167968l4.398438.972656 4.433593-.972656c27.09375-6.054687 52.265625-18.71875 73.277344-36.867187 5.90625-5.066407 11.453125-10.535157 16.609375-16.367188 2.71875-3.128906 5.296875-6.335937 7.757812-9.597656h-55.550781c-3.378906 9.554687-12.394531 15.957031-22.527343 16h-32c-13.253907 0-24-10.746094-24-24 0-13.257813 10.746093-24 24-24h32c10.132812.039063 19.148437 6.445313 22.527343 16h66.273438c.65625-1.089844 1.269531-2.128906 1.863281-3.203125 1-1.789062 2.046875-3.726562 3.015625-5.742188 1.152344-2.222656 2.191406-4.320312 3.097656-6.335937.710938-1.488281 1.246094-2.761719 1.789063-4zm-187.917968-97.40625c-8.835938 0-16-7.164063-16-16 0-8.839844 7.164062-16 16-16 8.835937 0 16 7.160156 16 16 0 8.835937-7.164063 16-16 16zm128 0c-8.835938 0-16-7.164063-16-16 0-8.839844 7.164062-16 16-16 8.835937 0 16 7.160156 16 16 0 8.835937-7.164063 16-16 16zm0 0"/><path d="m328.402344 288.492188-.070313 2.527343c-.089843 1.785157-.183593 3.480469-.304687 5.121094h40.464844c4.417968 0 8-3.582031 8-8v-80c0-4.417969-3.582032-8-8-8h-42.023438c.457031 2.335937.726562 4.796875 1.03125 7.199219.136719 1.109375.367188 2.191406.480469 3.320312.335937 3.582032.511719 7.199219.511719 10.863282v61.441406c0 1.855468 0 3.644531-.089844 5.527344zm0 0"/><path d="m168.492188 368.140625c-4.417969 0-8 3.582031-8 8s3.582031 8 8 8h32c4.417968 0 8-3.582031 8-8s-3.582032-8-8-8zm0 0"/><path d="m24.804688 293.890625-6.710938-8.953125c-6.648438-8.933594-12.382812-18.511719-17.113281-28.589844-.320313 2.585938-.484375 5.1875-.488281 7.792969 0 22.34375 12.070312 41.152344 25.183593 39.941406 0-.191406 0-.398437 0-.605469-.246093-1.785156-.40625-3.578124-.496093-5.363281-.167969-1.054687-.273438-2.621093-.375-4.222656zm0 0"/><path d="m344.492188 184.140625v-56c0-2.472656-.070313-4.875-.289063-7.273437-4.007813-45.519532-42.015625-80.503907-87.710937-80.726563-14.574219-.035156-28.925782 3.574219-41.753907 10.496094-3.578125 1.902343-8.011719.832031-10.328125-2.496094-27.707031-39.675781-77.664062-57.21875-124.09375-43.570313-48.941406 14.066407-81.894531 59.804688-79.746094 110.679688 0 1.554688-.078124 68.890625-.078124 68.890625.0625 29.023437 8.386718 57.433594 24 81.902344v-23.265625c-.019532-8.820313 1.609374-17.570313 4.800781-25.796875 7.105469-18.335938 21.363281-32.988281 39.496093-40.59375.652344-.269531 1.339844-.457031 2.039063-.550781l15.199219-2c26.265625-3.324219 51.546875-12.113282 74.207031-25.800782 12.734375-7.632812 24.542969-16.707031 35.203125-27.039062l23.117188-22.554688c2.4375-2.375 6.113281-2.953125 9.160156-1.429687l34.328125 17.128906c28.667969 14.273437 50.367187 39.511719 60.175781 70zm0 0"/></svg>