<svg height="448pt" viewBox="-32 0 448 448.55051" width="448pt" xmlns="http://www.w3.org/2000/svg"><path d="m182.683594 376.550781-13.089844 72h44.832031l-13.085937-72zm0 0"/><path d="m92.117188 144.550781c3.078124-5.441406 7.703124-9.84375 13.285156-12.65625h.074218c1.363282-.695312 2.777344-1.285156 4.230469-1.769531l.398438-.140625c1.355469-.429687 2.738281-.769531 4.136719-1.019531.234374-.046875.449218-.109375.679687-.140625 1.589844-.257813 3.191406-.398438 4.800781-.417969h1.886719c22.453125-.195312 44.238281-7.648438 62.105469-21.238281l43.496094-33.015625c2.71875-2.0625 6.445312-2.171875 9.28125-.273438 8.414062 5.777344 16.511718 12.011719 24.246093 18.671875 3.105469 2.671875 5.929688 5.28125 8.617188 7.863281.734375.703126 1.449219 1.402344 2.152343 2.097657 2.132813 2.089843 4.113282 4.144531 5.945313 6.160156.445313.496094.941406 1.007813 1.382813 1.503906 2.144531 2.398438 4.070312 4.796875 5.816406 7.085938.421875.578125.800781 1.128906 1.199218 1.6875 1.3125 1.824219 2.488282 3.617187 3.542969 5.371093.226563.375.535157.796876.753907 1.132813 16.085937-18.34375 18.441406-44.992187 5.824218-65.878906-12.617187-20.882813-37.300781-31.191407-61.027344-25.488281-2.910156.679687-5.960937-.324219-7.902343-2.597657-31.222657-37.261719-86.738281-42.15625-123.996094-10.933593-37.257813 31.222656-42.152344 86.738281-10.929687 123.996093zm0 0"/><path d="m224.011719 303.671875c-.703125.300781-1.457031.496094-2.160157.796875-3.125 1.308594-6.304687 2.472656-9.535156 3.488281-1.21875.386719-2.402344.800781-3.640625 1.128907-4.261719 1.226562-8.589843 2.21875-12.960937 2.976562l-2.398438.390625c-.871094.152344-1.757812.152344-2.625 0l-2.398437-.390625c-4.371094-.773438-8.695313-1.785156-12.953125-3.023438-1.214844-.34375-2.402344-.738281-3.632813-1.121093-3.199219-1.03125-6.398437-2.183594-9.496093-3.480469-.726563-.296875-1.488282-.488281-2.207032-.800781v30.265625l20.007813 26.648437h23.925781l20.074219-26.671875zm0 0"/><path d="m88.011719 193.671875v-30.21875c-.375-.351563-.726563-.726563-1.097657-1.085937-4.976562 2.878906-7.707031 8.488281-6.902343 14.183593.136719 9.429688 3.042969 18.609375 8.359375 26.398438-.238282-3.066407-.359375-6.160157-.359375-9.277344zm0 0"/><path d="m153.332031 448.550781 14.183594-78-21.90625-29.199219c-1.035156-1.386718-1.597656-3.070312-1.597656-4.800781h-24c-63.207031-.097656-115.617188 48.925781-119.738281 112zm0 0"/><path d="m156.011719 283.703125c10.808593 6.230469 22.640625 10.484375 34.945312 12.566406l1.054688.167969 1.085937-.175781c12.292969-2 24.113282-6.242188 34.875-12.511719 27.902344-16.164062 46.753906-44.328125 51.0625-76.289062.667969-4.566407.996094-9.175782.976563-13.789063v-49.121094c-.011719-1.160156-.167969-2.3125-.464844-3.433593-4.972656-12.207032-13.003906-22.933594-23.320313-31.144532-1.875-1.738281-3.851562-3.5-5.917968-5.285156-7.113282-6.105469-13.839844-11.152344-18.113282-14.242188l-38.398437 29.121094c-20.730469 15.859375-46.046875 24.558594-72.144531 24.800782h-1.800782c-1.527343.03125-3.042968.28125-4.496093.742187-.230469.074219-.457031.136719-.679688.21875-1.421875.488281-2.769531 1.175781-4 2.039063l-.097656.078124c-1.207031.894532-2.28125 1.949219-3.199219 3.136719-.085937.113281-.191406.214844-.28125.335938-.871094 1.207031-1.566406 2.53125-2.0625 3.9375-.097656.261719-.175781.535156-.257812.800781-.460938 1.398438-.722656 2.859375-.765625 4.335938v.253906 33.425781c-.011719 7.066406.730469 14.117187 2.214843 21.03125 6.007813 29.039063 24.121094 54.136719 49.785157 68.992187zm0 0"/><path d="m383.746094 448.550781c-4.285156-62.992187-56.597656-111.921875-119.734375-112h-24c0 1.730469-.5625 3.414063-1.601563 4.800781l-1.207031 1.597657-20.695313 27.601562 14.183594 78zm0 0"/><path d="m296.011719 153.78125v40.617188c5.089843-7.671876 7.867187-16.644532 8-25.847657 0-7.902343-2.519531-12.6875-8-14.769531zm0 0"/></svg>