<svg height="448pt" viewBox="0 -11 448 448" width="448pt" xmlns="http://www.w3.org/2000/svg"><path d="m224 384c123.511719 0 224-86.136719 224-192s-100.488281-192-224-192-224 86.136719-224 192c0 62.71875 35.832031 121.542969 95.855469 157.375 2.121093 1.257812 3.546875 3.421875 3.859375 5.871094.3125 2.445312-.519532 4.898437-2.257813 6.648437l-63.746093 63.707031 156.863281-37.648437c10.949219-2.625 22.167969-3.953125 33.425781-3.953125zm-72-96c0-4.417969 3.582031-8 8-8h88c22.089844 0 40-17.910156 40-40s-17.910156-40-40-40h-48c-30.929688 0-56-25.070312-56-56s25.070312-56 56-56h16v-24c0-4.417969 3.582031-8 8-8s8 3.582031 8 8v24h56c4.417969 0 8 3.582031 8 8s-3.582031 8-8 8h-88c-22.089844 0-40 17.910156-40 40s17.910156 40 40 40h48c30.929688 0 56 25.070312 56 56s-25.070312 56-56 56h-16v24c0 4.417969-3.582031 8-8 8s-8-3.582031-8-8v-24h-56c-4.417969 0-8-3.582031-8-8zm0 0"/></svg>