<svg height="447pt" viewBox="0 0 447.80283 447" width="447pt" xmlns="http://www.w3.org/2000/svg"><path d="m231.800781.402344v223.800781c0 1.054687-.210937 2.105469-.625 3.078125-.398437.96875-.984375 1.847656-1.726562 2.585938l-158.175781 158.175781c72.726562 67.734375 181.398437 79.425781 266.867187 28.714843 85.472656-50.714843 127.292969-151.695312 102.699219-247.988281-24.597656-96.292969-109.71875-164.855469-209.039063-168.367187zm0 0"/><path d="m59.960938 376.730469 144.527343-144.527344h-204.488281c1.890625 53.832031 23.1875 105.164063 59.960938 144.527344zm0 0"/><path d="m215.800781 216.203125v-215.800781c-117.34375 4.328125-211.472656 98.457031-215.800781 215.800781zm0 0"/></svg>