<svg height="448pt" viewBox="0 0 448 448.09831" width="448pt" xmlns="http://www.w3.org/2000/svg"><path d="m328.050781 248h16v80h-16zm0 0"/><path d="m272.050781 280h16v48h-16zm0 0"/><path d="m48.6875 152c1.324219 9.242188 4.957031 18.003906 10.5625 25.472656l25.488281-25.472656zm0 0"/><path d="m216.050781 296h16v32h-16zm0 0"/><path d="m112.050781 88.640625v55.359375c-.011719 2.125-.855469 4.15625-2.355469 5.664062l-39.117187 39.121094c18.695313 13.996094 44.121094 14.90625 63.765625 2.28125 19.648438-12.628906 29.382812-36.132812 24.414062-58.957031-4.964843-22.820313-23.589843-40.152344-46.707031-43.46875zm0 0"/><path d="m384.050781 216h16v112h-16zm0 0"/><path d="m448.050781 40h-216v-32c0-4.417969-3.582031-8-8-8s-8 3.582031-8 8v32h-215.9999998v320h204.6874998l-74.34375 74.34375c-2.082031 2.007812-2.914062 4.984375-2.183593 7.78125.734374 2.796875 2.917968 4.980469 5.714843 5.710938 2.796875.734374 5.769531-.101563 7.78125-2.179688l74.34375-74.34375v68.6875c0 4.417969 3.582031 8 8 8s8-3.582031 8-8v-68.6875l74.34375 74.34375c3.136719 3.03125 8.128907 2.988281 11.214844-.097656 3.085937-3.085938 3.128906-8.074219.097656-11.214844l-74.347656-74.34375h204.691406zm-176 32h112c4.417969 0 8 3.582031 8 8s-3.582031 8-8 8h-112c-4.417969 0-8-3.582031-8-8s3.582031-8 8-8zm112 48h-152c-4.417969 0-8-3.582031-8-8s3.582031-8 8-8h152c4.417969 0 8 3.582031 8 8s-3.582031 8-8 8zm8 24c0 4.417969-3.582031 8-8 8h-152c-4.417969 0-8-3.582031-8-8s3.582031-8 8-8h152c4.417969 0 8 3.582031 8 8zm-296 144c4.417969 0 8 3.582031 8 8s-3.582031 8-8 8h-56c-4.417969 0-8-3.582031-8-8s3.582031-8 8-8zm-56-16c0-4.417969 3.582031-8 8-8h16c4.417969 0 8 3.582031 8 8s-3.582031 8-8 8h-16c-4.417969 0-8-3.582031-8-8zm16 56h-16c-4.417969 0-8-3.582031-8-8s3.582031-8 8-8h16c4.417969 0 8 3.582031 8 8s-3.582031 8-8 8zm80 0h-56c-4.417969 0-8-3.582031-8-8s3.582031-8 8-8h56c4.417969 0 8 3.582031 8 8s-3.582031 8-8 8zm0-24h-16c-4.417969 0-8-3.582031-8-8s3.582031-8 8-8h16c4.417969 0 8 3.582031 8 8s-3.582031 8-8 8zm0-24h-48c-4.417969 0-8-3.582031-8-8s3.582031-8 8-8h48c4.417969 0 8 3.582031 8 8s-3.582031 8-8 8zm-32-64c-39.765625 0-72-32.234375-72-72s32.234375-72 72-72c39.761719 0 72 32.234375 72 72-.046875 39.746094-32.253906 71.957031-72 72zm144 120c0 4.417969-3.582031 8-8 8h-32c-4.417969 0-8-3.582031-8-8v-48c0-4.417969 3.582031-8 8-8h32c4.417969 0 8 3.582031 8 8zm56 0c0 4.417969-3.582031 8-8 8h-32c-4.417969 0-8-3.582031-8-8v-64c0-4.417969 3.582031-8 8-8h32c4.417969 0 8 3.582031 8 8zm56 0c0 4.417969-3.582031 8-8 8h-32c-4.417969 0-8-3.582031-8-8v-96c0-4.417969 3.582031-8 8-8h32c4.417969 0 8 3.582031 8 8zm56 0c0 4.417969-3.582031 8-8 8h-32c-4.417969 0-8-3.582031-8-8v-128c0-4.417969 3.582031-8 8-8h32c4.417969 0 8 3.582031 8 8zm0 0"/><path d="m96.050781 88.640625c-24.53125 3.566406-43.796875 22.832031-47.363281 47.359375h47.363281zm0 0"/></svg>