<svg height="456pt" viewBox="-4 0 456 456.09942" width="456pt" xmlns="http://www.w3.org/2000/svg"><path d="m288.050781 240h32v32h-32zm0 0"/><path d="m288.050781 288h32v32h-32zm0 0"/><path d="m208.050781 144h32v64h-32zm0 0"/><path d="m208.050781 224h32v96h-32zm0 0"/><path d="m368.050781 112h32v32h-32zm0 0"/><path d="m368.050781 160h32v160h-32zm0 0"/><path d="m.0507812 0h447.9999998v32h-447.9999998zm0 0"/><path d="m48.050781 256h32v64h-32zm0 0"/><path d="m48.050781 176h32v64h-32zm0 0"/><path d="m128.050781 288h32v32h-32zm0 0"/><path d="m128.050781 256h32v16h-32zm0 0"/><path d="m432.050781 368v-320h-416v320h200v41.472656c-11.019531 3.894532-17.632812 15.164063-15.65625 26.683594 1.976563 11.523438 11.964844 19.941406 23.65625 19.941406 11.6875 0 21.675781-8.417968 23.652344-19.941406 1.976563-11.519531-4.632813-22.789062-15.652344-26.683594v-41.472656zm-80-264c0-4.417969 3.582031-8 8-8h48c4.417969 0 8 3.582031 8 8v224c0 4.417969-3.582031 8-8 8h-48c-4.417969 0-8-3.582031-8-8zm-80 128c0-4.417969 3.582031-8 8-8h48c4.417969 0 8 3.582031 8 8v96c0 4.417969-3.582031 8-8 8h-48c-4.417969 0-8-3.582031-8-8zm-176 96c0 4.417969-3.582031 8-8 8h-48c-4.417969 0-8-3.582031-8-8v-160c0-4.417969 3.582031-8 8-8h48c4.417969 0 8 3.582031 8 8zm80 0c0 4.417969-3.582031 8-8 8h-48c-4.417969 0-8-3.582031-8-8v-80c0-4.417969 3.582031-8 8-8h48c4.417969 0 8 3.582031 8 8zm24 8c-4.417969 0-8-3.582031-8-8v-192c0-4.417969 3.582031-8 8-8h48c4.417969 0 8 3.582031 8 8v192c0 4.417969-3.582031 8-8 8zm0 0"/></svg>