<svg height="448pt" viewBox="0 0 448 448" width="448pt" xmlns="http://www.w3.org/2000/svg"><path d="m160 416c0 17.671875-14.328125 32-32 32s-32-14.328125-32-32 14.328125-32 32-32 32 14.328125 32 32zm0 0"/><path d="m256 416c0 17.671875-14.328125 32-32 32s-32-14.328125-32-32 14.328125-32 32-32 32 14.328125 32 32zm0 0"/><path d="m352 416c0 17.671875-14.328125 32-32 32s-32-14.328125-32-32 14.328125-32 32-32 32 14.328125 32 32zm0 0"/><path d="m448 416c0 17.671875-14.328125 32-32 32s-32-14.328125-32-32 14.328125-32 32-32 32 14.328125 32 32zm0 0"/><path d="m24 138.703125c.113281-.039063.238281-.054687.351562-.09375 1.699219-.539063 3.429688-.988281 5.175782-1.335937.800781-.183594 1.601562-.464844 2.480468-.609376 2.640626-.441406 5.316407-.660156 7.992188-.664062 26.507812 0 48 21.492188 48 48s-21.492188 48-48 48h144c13.253906 0 24 10.746094 24 24v16c0 13.253906-10.746094 24-24 24h-88v24h328v-288h-400zm0 0"/><path d="m192 272v-16c0-4.417969-3.582031-8-8-8h-8v32h8c4.417969 0 8-3.582031 8-8zm0 0"/><path d="m160 280v-32h-136c-1.96875-.027344-3.933594.226562-5.832031.742188-10.679688 2.660156-18.1757815 12.253906-18.167969 23.257812v108.257812c.136719-.121093.296875-.210937.433594-.328124 1.871094-1.640626 3.871094-3.136719 5.972656-4.464844l1.027344-.625c2.164062-1.308594 4.429687-2.4375 6.773437-3.382813l1-.367187c2.464844-.9375 5-1.667969 7.585938-2.1875.238281-.039063.488281-.0625.734375-.109375 5.460937-1.035157 11.0625-1.058594 16.527344-.066407.320312.058594.640624.089844.960937.152344 2.449219.476563 4.855469 1.144532 7.199219 1.992188l1.183594.441406c2.253906.878906 4.441406 1.929688 6.539062 3.136719l1.039062.628906c2.089844 1.269531 4.082032 2.695313 5.960938 4.265625.207031.175781.390625.367188.589844.542969 1.925781 1.660156 3.710937 3.472656 5.34375 5.417969l.089844.101562c1.613281 1.96875 3.066406 4.0625 4.351562 6.257812.160156.28125.34375.542969.503906.800782 1.199219 2.136718 2.230469 4.363281 3.078125 6.664062.152344.390625.296875.800782.433594 1.175782.8125 2.332031 1.441406 4.726562 1.878906 7.160156 0 .175781.105469.328125.136719.503906h.65625v-119.96875c0-4.417969 3.582031-8 8-8zm0 0"/><path d="m64 416c0 17.671875-14.328125 32-32 32s-32-14.328125-32-32 14.328125-32 32-32 32 14.328125 32 32zm0 0"/><path d="m0 0h448v16h-448zm0 0"/><path d="m40 216c17.671875 0 32-14.328125 32-32s-14.328125-32-32-32c-6.929688-.039062-13.679688 2.210938-19.199219 6.398438-8.074219 6.042968-12.828125 15.539062-12.828125 25.621093 0 10.085938 4.753906 19.578125 12.828125 25.621094 5.523438 4.175781 12.273438 6.410156 19.199219 6.359375zm0 0"/></svg>