<svg height="448pt" viewBox="0 -4 448 447" width="448pt" xmlns="http://www.w3.org/2000/svg"><path d="m152 256.5c70.441406 0 131.199219-40.214844 147.664062-97.808594 2.875-9.804687 4.332032-19.972656 4.335938-30.191406 0-70.574219-68.183594-128-152-128s-152 57.425781-152 128c.179688 26.410156 9.585938 51.929688 26.59375 72.136719 1.808594 2.214843 2.300781 5.226562 1.285156 7.902343l-21.597656 56.953126 61.488281-27.03125c2.179688-.960938 4.675781-.894532 6.804688.175781 20.75 10.332031 43.398437 16.28125 66.546875 17.480469 3.726562.3125 7.269531.382812 10.878906.382812zm-48-136c0-35.289062 21.527344-64 48-64s48 28.710938 48 64c.148438 14.136719-3.558594 28.050781-10.71875 40.238281l14.839844 8.90625c2.503906 1.445313 4.035156 4.128907 4.003906 7.023438-.035156 2.890625-1.625 5.539062-4.164062 6.925781-2.539063 1.386719-5.628907 1.296875-8.082032-.238281l-16.800781-10.070313c-7.28125 7.027344-16.957031 11.039063-27.078125 11.214844-26.472656 0-48-28.710938-48-64zm0 0"/><path d="m296 280.285156-14.359375 40.214844h28.71875zm0 0"/><path d="m164.496094 164.5-8.617188-5.167969c-3.695312-2.3125-4.859375-7.164062-2.613281-10.902343 2.246094-3.738282 7.074219-4.988282 10.855469-2.808594l11.445312 6.878906c5.640625-9.714844 8.554688-20.769531 8.433594-32 0-26.015625-14.65625-48-32-48s-32 21.984375-32 48 14.65625 48 32 48c4.46875-.070312 8.816406-1.460938 12.496094-4zm0 0"/><path d="m296 424.5c24.628906.078125 48.996094-5.050781 71.503906-15.046875 2.125-.960937 4.566406-.949219 6.679688.039063l66.191406 30.886718-24.847656-57.925781c-1.234375-2.882813-.675782-6.21875 1.433594-8.539063 19.753906-20.953124 30.84375-48.613281 31.039062-77.414062 0-65.160156-58.769531-120-134.910156-127.144531-.335938.96875-.800782 1.878906-1.121094 2.839843-.695312 1.871094-1.425781 3.730469-2.199219 5.601563-.777343 1.871094-1.65625 3.808594-2.554687 5.671875-.894532 1.863281-1.773438 3.632812-2.726563 5.40625-.953125 1.777344-1.976562 3.578125-3.015625 5.335938-1.039062 1.761718-2.113281 3.496093-3.199218 5.210937-1.089844 1.710937-2.28125 3.359375-3.472657 5.007813-1.191406 1.644531-2.402343 3.335937-3.703125 4.957031-1.304687 1.625-2.578125 3.152343-3.914062 4.707031-1.335938 1.550781-2.710938 3.132812-4.136719 4.664062-1.421875 1.527344-2.863281 2.941407-4.335937 4.390626-1.472657 1.449218-2.976563 2.925781-4.527344 4.335937-1.550782 1.40625-3.144532 2.742187-4.75 4.085937-1.609375 1.34375-3.203125 2.699219-4.875 4-1.671875 1.304688-3.429688 2.53125-5.167969 3.769532-1.734375 1.238281-3.40625 2.398437-5.175781 3.601562-1.765625 1.199219-3.703125 2.3125-5.597656 3.4375-1.898438 1.128906-3.570313 2.175782-5.417969 3.199219-1.847657 1.027344-4 2.082031-6 3.089844-1.863281.9375-3.703125 1.902343-5.597657 2.785156-2.105468.957031-4.273437 1.832031-6.402343 2.71875-1.910157.800781-3.800781 1.601563-5.742188 2.34375-2.25.839844-4.5625 1.601563-6.855469 2.328125-1.945312.640625-3.859374 1.328125-5.824218 1.902344-2.402344.707031-4.890625 1.289062-7.34375 1.90625-1.929688.480468-3.832032 1.023437-5.792969 1.449218-2.632813.574219-5.328125 1.007813-8 1.46875-1.839844.320313-3.65625.707032-5.519531.976563-3.023438.433594-6.105469.707031-9.175782 1-1.601562.152344-3.121093.386719-4.707031.496094-4.71875.304687-9.464843.457031-14.238281.457031-1.769531 0-3.519531 0-5.273438-.0625-1.808593 7.890625-2.722656 15.964844-2.726562 24.0625 0 70.574219 68.183594 128 152 128zm-47.535156-58.6875 40-112c1.132812-3.1875 4.152344-5.316406 7.535156-5.316406s6.402344 2.128906 7.535156 5.316406l40 112c1.484375 4.160156-.683594 8.738281-4.847656 10.222656-4.160156 1.484375-8.738281-.683594-10.222656-4.847656l-12.394532-34.6875h-40.140624l-12.394532 34.6875c-1.484375 4.164062-6.0625 6.332031-10.222656 4.847656-4.164062-1.484375-6.332031-6.0625-4.847656-10.222656zm0 0"/></svg>