<svg height="448pt" viewBox="0 0 448 448" width="448pt" xmlns="http://www.w3.org/2000/svg"><path d="m296 72c0 39.765625-32.234375 72-72 72s-72-32.234375-72-72 32.234375-72 72-72 72 32.234375 72 72zm0 0"/><path d="m184 442.519531v-206.449219l-25.800781-18.757812c-4.128907-3.007812-8.375-5.800781-12.671875-8.488281l-.359375-.238281c-33.941407-21.214844-73.144531-32.503907-113.167969-32.585938v120h8c10.589844 0 20.75 4.191406 28.257812 11.664062 1.804688 1.835938 3.433594 3.835938 4.871094 5.976563.566406.847656.96875 1.773437 1.472656 2.65625.785157 1.289063 1.496094 2.625 2.125 4 .449219 1.039063.730469 2.136719 1.082032 3.199219.476562 1.3125.882812 2.644531 1.214844 4 .234374 1.070312.320312 2.175781.464843 3.273437.144531 1.09375.414063 2.191407.472657 3.320313 0 .308594-.066407.621094-.058594.933594.007812.3125.097656.648437.097656.976562 0 1.128906-.238281 2.183594-.335938 3.28125-.097656 1.09375-.136718 2.238281-.335937 3.335938-3.222656 19.222656-19.835937 33.324218-39.328125 33.382812h-8v24c49.035156.277344 97.238281 12.695312 140.304688 36.144531zm0 0"/><path d="m280.382812 204.375c.640626-.464844 1.3125-.855469 1.953126-1.3125-15.78125-7.277344-32.953126-11.054688-50.335938-11.0625h-16c-17.382812.007812-34.554688 3.785156-50.335938 11.0625.640626.457031 1.3125.847656 1.953126 1.3125l26.984374 19.625h58.796876zm0 0"/><path d="m200 240h48v208h-48zm0 0"/><path d="m57.433594 351.71875c3.195312-3.304688 5.347656-7.476562 6.191406-12 .078125-.503906.109375-1.023438.160156-1.542969.109375-.921875.160156-1.847656.160156-2.777343-.042968-.84375-.128906-1.6875-.257812-2.527344-.085938-.664063-.136719-1.335938-.28125-1.984375-.195312-.8125-.441406-1.613281-.734375-2.398438-.207031-.640625-.375-1.296875-.648437-1.921875-.386719-.820312-.816407-1.621094-1.289063-2.398437-.292969-.511719-.535156-1.0625-.871094-1.601563-.859375-1.285156-1.835937-2.484375-2.917969-3.589844-4.511718-4.46875-10.597656-6.972656-16.945312-6.976562h-40v48h38.191406c7.273438-.027344 14.222656-3.015625 19.242188-8.28125zm0 0"/><path d="m416 400v-24h-8c-19.492188-.058594-36.105469-14.160156-39.328125-33.382812-.199219-1.097657-.238281-2.21875-.335937-3.335938-.097657-1.121094-.335938-2.152344-.335938-3.28125 0-.328125.089844-.648438.097656-.976562.007813-.328126-.074218-.625-.058594-.933594.058594-1.128906.328126-2.210938.472657-3.320313.144531-1.113281.230469-2.203125.464843-3.273437.328126-1.339844.726563-2.660156 1.191407-3.960938.359375-1.085937.648437-2.199218 1.097656-3.246094.613281-1.324218 1.296875-2.617187 2.054687-3.863281.519532-.921875.9375-1.882812 1.527344-2.761719 1.328125-1.960937 2.824219-3.804687 4.472656-5.503906.128907-.128906.214844-.289062.34375-.417968l.0625-.0625c7.507813-7.480469 17.675782-11.679688 28.273438-11.679688h8v-120c-40.296875.09375-79.75 11.542969-113.839844 33.03125-.121094.074219-.222656.167969-.351562.234375-4.066406 2.566406-8.097656 5.199219-12 8.046875l-25.808594 18.757812v206.449219l11.695312-6.398437c43.070313-23.441406 91.273438-35.851563 140.304688-36.121094zm0 0"/><path d="m448 312h-40c-1.574219 0-3.144531.15625-4.6875.464844-.480469.09375-.921875.296875-1.382812.414062-1.046876.246094-2.074219.558594-3.082032.9375-.535156.222656-1.015625.558594-1.535156.800782-.898438.410156-1.769531.875-2.609375 1.390624-.519531.34375-.976563.800782-1.472656 1.191407-.777344.566406-1.523438 1.175781-2.230469 1.824219-.273438.273437-.472656.601562-.734375.886718-.765625.832032-1.476563 1.707032-2.128906 2.625-.433594.648438-.753907 1.34375-1.121094 2.023438-.367187.679687-.75 1.289062-1.039063 1.96875-.289062.679687-.464843 1.351562-.6875 2.03125-.226562.679687-.527343 1.53125-.703124 2.320312-.136719.640625-.1875 1.304688-.273438 1.960938-.128906.84375-.214844 1.691406-.257812 2.542968 0 .929688.050781 1.855469.160156 2.777344.050781.519532.082031 1.039063.160156 1.542969.84375 4.523437 2.996094 8.695313 6.191406 12 5.019532 5.269531 11.964844 8.265625 19.242188 8.296875h38.191406zm0 0"/></svg>