<svg height="464pt" viewBox="0 0 464 464" width="464pt" xmlns="http://www.w3.org/2000/svg"><path d="m256 24c0 13.253906-10.746094 24-24 24s-24-10.746094-24-24 10.746094-24 24-24 24 10.746094 24 24zm0 0"/><path d="m232 64c22.089844 0 40 17.910156 40 40v8h-80v-8c0-22.089844 17.910156-40 40-40zm0 0"/><path d="m152 184c0 13.253906-10.746094 24-24 24s-24-10.746094-24-24 10.746094-24 24-24 24 10.746094 24 24zm0 0"/><path d="m128 224c22.089844 0 40 17.910156 40 40v8h-80v-8c0-22.089844 17.910156-40 40-40zm0 0"/><path d="m64 376c0 13.253906-10.746094 24-24 24s-24-10.746094-24-24 10.746094-24 24-24 24 10.746094 24 24zm0 0"/><path d="m40 416c22.089844 0 40 17.910156 40 40v8h-80v-8c0-22.089844 17.910156-40 40-40zm0 0"/><path d="m256 376c0 13.253906-10.746094 24-24 24s-24-10.746094-24-24 10.746094-24 24-24 24 10.746094 24 24zm0 0"/><path d="m232 416c22.089844 0 40 17.910156 40 40v8h-80v-8c0-22.089844 17.910156-40 40-40zm0 0"/><path d="m448 376c0 13.253906-10.746094 24-24 24s-24-10.746094-24-24 10.746094-24 24-24 24 10.746094 24 24zm0 0"/><path d="m424 416c22.089844 0 40 17.910156 40 40v8h-80v-8c0-22.089844 17.910156-40 40-40zm0 0"/><path d="m360 184c0 13.253906-10.746094 24-24 24s-24-10.746094-24-24 10.746094-24 24-24 24 10.746094 24 24zm0 0"/><path d="m336 224c22.089844 0 40 17.910156 40 40v8h-80v-8c0-22.089844 17.910156-40 40-40zm0 0"/><path d="m232 128c-4.417969 0-8 3.582031-8 8v36.6875l-29.65625 29.65625c-3.03125 3.140625-2.988281 8.128906.097656 11.214844 3.085938 3.085937 8.074219 3.128906 11.214844.097656l26.34375-26.34375 26.34375 26.34375c3.140625 3.03125 8.128906 2.988281 11.214844-.097656 3.085937-3.085938 3.128906-8.074219.097656-11.214844l-29.65625-29.65625v-36.6875c0-4.417969-3.582031-8-8-8zm0 0"/><path d="m136 332.6875v-36.6875c0-4.417969-3.582031-8-8-8s-8 3.582031-8 8v36.6875l-29.65625 29.65625c-3.03125 3.140625-2.988281 8.128906.097656 11.214844 3.085938 3.085937 8.074219 3.128906 11.214844.097656l26.34375-26.34375 26.34375 26.34375c3.140625 3.03125 8.128906 2.988281 11.214844-.097656 3.085937-3.085938 3.128906-8.074219.097656-11.214844zm0 0"/><path d="m373.65625 362.34375-29.65625-29.65625v-36.6875c0-4.417969-3.582031-8-8-8s-8 3.582031-8 8v36.6875l-29.65625 29.65625c-3.03125 3.140625-2.988281 8.128906.097656 11.214844 3.085938 3.085937 8.074219 3.128906 11.214844.097656l26.34375-26.34375 26.34375 26.34375c3.140625 3.03125 8.128906 2.988281 11.214844-.097656 3.085937-3.085938 3.128906-8.074219.097656-11.214844zm0 0"/></svg>