<svg height="471pt" viewBox="-10 -11 471.2 471" width="471pt" xmlns="http://www.w3.org/2000/svg"><path d="m456 384.101562c0 39.761719-32.234375 72-72 72s-72-32.238281-72-72c0-39.765624 32.234375-72 72-72s72 32.234376 72 72zm0 0"/><path d="m376 234.84375h-17.945312l17.945312 17.945312zm0 0"/><path d="m409.945312 234.84375h-17.945312v17.945312zm0 0"/><path d="m226.742188 54.15625v17.945312h17.945312zm0 0"/><path d="m226.742188 88.101562v17.941407l17.945312-17.941407zm0 0"/><path d="m309.457031 80.101562 74.542969 60.863282 74.542969-60.863282-74.542969-60.867187zm0 0"/><path d="m8 312.101562h144v144h-144zm0 0"/><path d="m80 192.101562-37.257812 37.253907h29.257812v66.746093h16v-66.746093h29.257812zm0 0"/><path d="m152 80.101562c0 39.761719-32.234375 72-72 72s-72-32.238281-72-72c0-39.765624 32.234375-72 72-72s72 32.234376 72 72zm0 0"/><path d="m226.742188 54.15625 17.945312 17.945312h-17.945312v16h17.945312l-17.945312 17.941407v11.3125l37.257812-37.253907-37.257812-37.257812zm0 0"/><path d="m376 252.789062-17.945312-17.945312h-11.3125l37.257812 37.257812 37.257812-37.257812h-11.3125l-17.945312 17.945312v-17.945312h-16zm0 0"/><path d="m376 160.101562h16v74.742188h-16zm0 0"/><path d="m168 72.101562h58.742188v16h-58.742188zm0 0"/></svg>